<mxfile host="app.diagrams.net" modified="2024-02-13T11:45:01.537Z" agent="Mozilla/5.0 (Windows NT 10.0; Win64; x64) AppleWebKit/537.36 (KHTML, like Gecko) Chrome/120.0.0.0 YaBrowser/24.1.0.0 Safari/537.36" etag="IfxaJWnqY2KDoZS1yrBy" version="23.1.3" type="device">
  <diagram name="Страница — 1" id="WZ6jThH8MlJaX2y2Sjwr">
    <mxGraphModel dx="1184" dy="1129" grid="1" gridSize="10" guides="1" tooltips="1" connect="1" arrows="1" fold="1" page="1" pageScale="1" pageWidth="827" pageHeight="1169" math="0" shadow="0">
      <root>
        <mxCell id="0" />
        <mxCell id="1" parent="0" />
        <mxCell id="gi3paLuiC_0HscVEnJB9-1" value="organs" style="shape=table;startSize=30;container=1;collapsible=0;childLayout=tableLayout;fixedRows=1;rowLines=0;fontStyle=0;strokeColor=default;fontSize=16;" vertex="1" parent="1">
          <mxGeometry x="70" y="340" width="220" height="120" as="geometry" />
        </mxCell>
        <mxCell id="gi3paLuiC_0HscVEnJB9-2" value="" style="shape=tableRow;horizontal=0;startSize=0;swimlaneHead=0;swimlaneBody=0;top=0;left=0;bottom=0;right=0;collapsible=0;dropTarget=0;fillColor=none;points=[[0,0.5],[1,0.5]];portConstraint=eastwest;strokeColor=inherit;fontSize=16;" vertex="1" parent="gi3paLuiC_0HscVEnJB9-1">
          <mxGeometry y="30" width="220" height="30" as="geometry" />
        </mxCell>
        <mxCell id="gi3paLuiC_0HscVEnJB9-3" value="1" style="shape=partialRectangle;html=1;whiteSpace=wrap;connectable=0;fillColor=none;top=0;left=0;bottom=0;right=0;overflow=hidden;pointerEvents=1;strokeColor=inherit;fontSize=16;" vertex="1" parent="gi3paLuiC_0HscVEnJB9-2">
          <mxGeometry width="49" height="30" as="geometry">
            <mxRectangle width="49" height="30" as="alternateBounds" />
          </mxGeometry>
        </mxCell>
        <mxCell id="gi3paLuiC_0HscVEnJB9-4" value="id: serial" style="shape=partialRectangle;html=1;whiteSpace=wrap;connectable=0;fillColor=none;top=0;left=0;bottom=0;right=0;align=left;spacingLeft=6;overflow=hidden;strokeColor=inherit;fontSize=16;" vertex="1" parent="gi3paLuiC_0HscVEnJB9-2">
          <mxGeometry x="49" width="171" height="30" as="geometry">
            <mxRectangle width="171" height="30" as="alternateBounds" />
          </mxGeometry>
        </mxCell>
        <mxCell id="gi3paLuiC_0HscVEnJB9-5" value="" style="shape=tableRow;horizontal=0;startSize=0;swimlaneHead=0;swimlaneBody=0;top=0;left=0;bottom=0;right=0;collapsible=0;dropTarget=0;fillColor=none;points=[[0,0.5],[1,0.5]];portConstraint=eastwest;strokeColor=inherit;fontSize=16;" vertex="1" parent="gi3paLuiC_0HscVEnJB9-1">
          <mxGeometry y="60" width="220" height="30" as="geometry" />
        </mxCell>
        <mxCell id="gi3paLuiC_0HscVEnJB9-6" value="2" style="shape=partialRectangle;html=1;whiteSpace=wrap;connectable=0;fillColor=none;top=0;left=0;bottom=0;right=0;overflow=hidden;strokeColor=inherit;fontSize=16;" vertex="1" parent="gi3paLuiC_0HscVEnJB9-5">
          <mxGeometry width="49" height="30" as="geometry">
            <mxRectangle width="49" height="30" as="alternateBounds" />
          </mxGeometry>
        </mxCell>
        <mxCell id="gi3paLuiC_0HscVEnJB9-7" value="name: vorchar(255)" style="shape=partialRectangle;html=1;whiteSpace=wrap;connectable=0;fillColor=none;top=0;left=0;bottom=0;right=0;align=left;spacingLeft=6;overflow=hidden;strokeColor=inherit;fontSize=16;" vertex="1" parent="gi3paLuiC_0HscVEnJB9-5">
          <mxGeometry x="49" width="171" height="30" as="geometry">
            <mxRectangle width="171" height="30" as="alternateBounds" />
          </mxGeometry>
        </mxCell>
        <mxCell id="gi3paLuiC_0HscVEnJB9-8" value="" style="shape=tableRow;horizontal=0;startSize=0;swimlaneHead=0;swimlaneBody=0;top=0;left=0;bottom=0;right=0;collapsible=0;dropTarget=0;fillColor=none;points=[[0,0.5],[1,0.5]];portConstraint=eastwest;strokeColor=inherit;fontSize=16;" vertex="1" parent="gi3paLuiC_0HscVEnJB9-1">
          <mxGeometry y="90" width="220" height="30" as="geometry" />
        </mxCell>
        <mxCell id="gi3paLuiC_0HscVEnJB9-9" value="3" style="shape=partialRectangle;html=1;whiteSpace=wrap;connectable=0;fillColor=none;top=0;left=0;bottom=0;right=0;overflow=hidden;strokeColor=inherit;fontSize=16;" vertex="1" parent="gi3paLuiC_0HscVEnJB9-8">
          <mxGeometry width="49" height="30" as="geometry">
            <mxRectangle width="49" height="30" as="alternateBounds" />
          </mxGeometry>
        </mxCell>
        <mxCell id="gi3paLuiC_0HscVEnJB9-10" value="people_id: int" style="shape=partialRectangle;html=1;whiteSpace=wrap;connectable=0;fillColor=none;top=0;left=0;bottom=0;right=0;align=left;spacingLeft=6;overflow=hidden;strokeColor=inherit;fontSize=16;" vertex="1" parent="gi3paLuiC_0HscVEnJB9-8">
          <mxGeometry x="49" width="171" height="30" as="geometry">
            <mxRectangle width="171" height="30" as="alternateBounds" />
          </mxGeometry>
        </mxCell>
        <mxCell id="gi3paLuiC_0HscVEnJB9-11" value="people" style="shape=table;startSize=30;container=1;collapsible=0;childLayout=tableLayout;fixedRows=1;rowLines=0;fontStyle=0;strokeColor=default;fontSize=16;" vertex="1" parent="1">
          <mxGeometry x="370" y="340" width="210" height="110" as="geometry" />
        </mxCell>
        <mxCell id="gi3paLuiC_0HscVEnJB9-12" value="" style="shape=tableRow;horizontal=0;startSize=0;swimlaneHead=0;swimlaneBody=0;top=0;left=0;bottom=0;right=0;collapsible=0;dropTarget=0;fillColor=none;points=[[0,0.5],[1,0.5]];portConstraint=eastwest;strokeColor=inherit;fontSize=16;" vertex="1" parent="gi3paLuiC_0HscVEnJB9-11">
          <mxGeometry y="30" width="210" height="30" as="geometry" />
        </mxCell>
        <mxCell id="gi3paLuiC_0HscVEnJB9-13" value="1" style="shape=partialRectangle;html=1;whiteSpace=wrap;connectable=0;fillColor=none;top=0;left=0;bottom=0;right=0;overflow=hidden;pointerEvents=1;strokeColor=inherit;fontSize=16;" vertex="1" parent="gi3paLuiC_0HscVEnJB9-12">
          <mxGeometry width="47" height="30" as="geometry">
            <mxRectangle width="47" height="30" as="alternateBounds" />
          </mxGeometry>
        </mxCell>
        <mxCell id="gi3paLuiC_0HscVEnJB9-14" value="id: serial" style="shape=partialRectangle;html=1;whiteSpace=wrap;connectable=0;fillColor=none;top=0;left=0;bottom=0;right=0;align=left;spacingLeft=6;overflow=hidden;strokeColor=inherit;fontSize=16;" vertex="1" parent="gi3paLuiC_0HscVEnJB9-12">
          <mxGeometry x="47" width="163" height="30" as="geometry">
            <mxRectangle width="163" height="30" as="alternateBounds" />
          </mxGeometry>
        </mxCell>
        <mxCell id="gi3paLuiC_0HscVEnJB9-15" value="" style="shape=tableRow;horizontal=0;startSize=0;swimlaneHead=0;swimlaneBody=0;top=0;left=0;bottom=0;right=0;collapsible=0;dropTarget=0;fillColor=none;points=[[0,0.5],[1,0.5]];portConstraint=eastwest;strokeColor=inherit;fontSize=16;" vertex="1" parent="gi3paLuiC_0HscVEnJB9-11">
          <mxGeometry y="60" width="210" height="30" as="geometry" />
        </mxCell>
        <mxCell id="gi3paLuiC_0HscVEnJB9-16" value="2" style="shape=partialRectangle;html=1;whiteSpace=wrap;connectable=0;fillColor=none;top=0;left=0;bottom=0;right=0;overflow=hidden;strokeColor=inherit;fontSize=16;" vertex="1" parent="gi3paLuiC_0HscVEnJB9-15">
          <mxGeometry width="47" height="30" as="geometry">
            <mxRectangle width="47" height="30" as="alternateBounds" />
          </mxGeometry>
        </mxCell>
        <mxCell id="gi3paLuiC_0HscVEnJB9-17" value="name: vorchar(255)" style="shape=partialRectangle;html=1;whiteSpace=wrap;connectable=0;fillColor=none;top=0;left=0;bottom=0;right=0;align=left;spacingLeft=6;overflow=hidden;strokeColor=inherit;fontSize=16;" vertex="1" parent="gi3paLuiC_0HscVEnJB9-15">
          <mxGeometry x="47" width="163" height="30" as="geometry">
            <mxRectangle width="163" height="30" as="alternateBounds" />
          </mxGeometry>
        </mxCell>
        <mxCell id="gi3paLuiC_0HscVEnJB9-18" value="" style="shape=tableRow;horizontal=0;startSize=0;swimlaneHead=0;swimlaneBody=0;top=0;left=0;bottom=0;right=0;collapsible=0;dropTarget=0;fillColor=none;points=[[0,0.5],[1,0.5]];portConstraint=eastwest;strokeColor=inherit;fontSize=16;" vertex="1" parent="gi3paLuiC_0HscVEnJB9-11">
          <mxGeometry y="90" width="210" height="20" as="geometry" />
        </mxCell>
        <mxCell id="gi3paLuiC_0HscVEnJB9-19" value="" style="shape=partialRectangle;html=1;whiteSpace=wrap;connectable=0;fillColor=none;top=0;left=0;bottom=0;right=0;overflow=hidden;strokeColor=inherit;fontSize=16;" vertex="1" parent="gi3paLuiC_0HscVEnJB9-18">
          <mxGeometry width="47" height="20" as="geometry">
            <mxRectangle width="47" height="20" as="alternateBounds" />
          </mxGeometry>
        </mxCell>
        <mxCell id="gi3paLuiC_0HscVEnJB9-20" value="" style="shape=partialRectangle;html=1;whiteSpace=wrap;connectable=0;fillColor=none;top=0;left=0;bottom=0;right=0;align=left;spacingLeft=6;overflow=hidden;strokeColor=inherit;fontSize=16;" vertex="1" parent="gi3paLuiC_0HscVEnJB9-18">
          <mxGeometry x="47" width="163" height="20" as="geometry">
            <mxRectangle width="163" height="20" as="alternateBounds" />
          </mxGeometry>
        </mxCell>
        <mxCell id="gi3paLuiC_0HscVEnJB9-22" value="" style="endArrow=classic;html=1;rounded=0;" edge="1" parent="1">
          <mxGeometry width="50" height="50" relative="1" as="geometry">
            <mxPoint x="220" y="450" as="sourcePoint" />
            <mxPoint x="360" y="420" as="targetPoint" />
          </mxGeometry>
        </mxCell>
      </root>
    </mxGraphModel>
  </diagram>
</mxfile>
